<svg xmlns="http://www.w3.org/2000/svg" x="0px" y="0px" viewBox="0 0 300 500" width="60" height="60" xml:space="preserve">
    <title>Flaster (band-aid)</title>
    <g transform="rotate(-45 190 380)">
<path style="fill:#F5C882;" d="M256,503.983L256,503.983c-51.949,0-94.063-42.113-94.063-94.063V102.079
	c0-51.949,42.113-94.063,94.063-94.063l0,0c51.949,0,94.063,42.113,94.063,94.063v307.841
	C350.063,461.87,307.949,503.983,256,503.983z"/>
        <path style="fill:#F5AF73;" d="M307.307,341.511H204.693c-4.722,0-8.551-3.829-8.551-8.551V179.04c0-4.722,3.829-8.551,8.551-8.551
	h102.614c4.722,0,8.551,3.829,8.551,8.551V332.96C315.858,337.683,312.029,341.511,307.307,341.511z"/>
        <path style="fill:#F5965F;" d="M196.142,315.858h119.716v17.102c0,4.722-3.829,8.551-8.551,8.551H204.693
	c-4.722,0-8.551-3.829-8.551-8.551V315.858z"/>
        <path d="M256,0c-56.287,0-102.079,45.792-102.079,102.079v307.841C153.921,466.208,199.713,512,256,512
	s102.079-45.792,102.079-102.079V102.079C358.079,45.792,312.287,0,256,0z M342.046,409.921c0,47.446-38.6,86.046-86.046,86.046
	s-86.046-38.6-86.046-86.046V102.079c0-47.446,38.6-86.046,86.046-86.046s86.046,38.6,86.046,86.046V409.921z"/>
        <path d="M204.693,162.472c-9.136,0-16.568,7.432-16.568,16.568V332.96c0,9.136,7.432,16.568,16.568,16.568h102.614
	c9.136,0,16.568-7.432,16.568-16.568V179.04c0-9.136-7.432-16.568-16.568-16.568H204.693z M307.841,179.04V332.96
	c0,0.294-0.239,0.534-0.534,0.534H204.693c-0.295,0-0.534-0.241-0.534-0.534V179.04c0-0.294,0.239-0.534,0.534-0.534h102.614
	C307.602,178.505,307.841,178.746,307.841,179.04z"/>
        <path d="M256.086,152.852c4.427,0,8.017-3.588,8.017-8.017c0-4.428-3.589-8.017-8.017-8.017H256c-4.427,0-7.974,3.588-7.974,8.017
	C248.026,149.264,251.658,152.852,256.086,152.852z"/>
        <path d="M324.495,136.818h-0.086c-4.427,0-7.974,3.588-7.974,8.017c0,4.428,3.632,8.017,8.059,8.017s8.017-3.588,8.017-8.017
	C332.511,140.407,328.922,136.818,324.495,136.818z"/>
        <path d="M187.591,152.852c4.427,0,8.017-3.588,8.017-8.017c0-4.428-3.589-8.017-8.017-8.017h-0.086
	c-4.427,0-7.974,3.588-7.974,8.017C179.531,149.264,183.163,152.852,187.591,152.852z"/>
        <path d="M290.205,152.852c4.427,0,8.017-3.588,8.017-8.017c0-4.428-3.589-8.017-8.017-8.017h-0.085
	c-4.427,0-7.974,3.588-7.974,8.017C282.145,149.264,285.777,152.852,290.205,152.852z"/>
        <path d="M221.881,152.852c4.427,0,8.017-3.588,8.017-8.017c0-4.428-3.589-8.017-8.017-8.017h-0.086
	c-4.427,0-7.974,3.588-7.974,8.017C213.821,149.264,217.454,152.852,221.881,152.852z"/>
        <path d="M256.086,101.545c4.427,0,8.017-3.588,8.017-8.017c0-4.428-3.589-8.017-8.017-8.017H256c-4.427,0-7.974,3.588-7.974,8.017
	C248.026,97.957,251.658,101.545,256.086,101.545z"/>
        <path d="M324.495,101.545c4.427,0,8.017-3.588,8.017-8.017c0-4.428-3.589-8.017-8.017-8.017h-0.086
	c-4.427,0-7.974,3.588-7.974,8.017C316.435,97.957,320.067,101.545,324.495,101.545z"/>
        <path d="M187.591,101.545c4.427,0,8.017-3.588,8.017-8.017c0-4.428-3.589-8.017-8.017-8.017h-0.086
	c-4.427,0-7.974,3.588-7.974,8.017C179.531,97.957,183.163,101.545,187.591,101.545z"/>
        <path d="M290.205,101.545c4.427,0,8.017-3.588,8.017-8.017c0-4.428-3.589-8.017-8.017-8.017h-0.085
	c-4.427,0-7.974,3.588-7.974,8.017C282.145,97.957,285.777,101.545,290.205,101.545z"/>
        <path d="M221.881,101.545c4.427,0,8.017-3.588,8.017-8.017c0-4.428-3.589-8.017-8.017-8.017h-0.086
	c-4.427,0-7.974,3.588-7.974,8.017C213.821,97.957,217.454,101.545,221.881,101.545z"/>
        <path d="M256.086,50.238c4.427,0,8.017-3.588,8.017-8.017s-3.589-8.017-8.017-8.017H256c-4.427,0-7.974,3.588-7.974,8.017
	S251.658,50.238,256.086,50.238z"/>
        <path d="M290.205,50.238c4.427,0,8.017-3.588,8.017-8.017s-3.589-8.017-8.017-8.017h-0.085c-4.427,0-7.974,3.588-7.974,8.017
	S285.777,50.238,290.205,50.238z"/>
        <path d="M221.881,50.238c4.427,0,8.017-3.588,8.017-8.017s-3.589-8.017-8.017-8.017h-0.086c-4.427,0-7.974,3.588-7.974,8.017
	S217.454,50.238,221.881,50.238z"/>
        <path d="M273.102,127.198c4.427,0,8.017-3.588,8.017-8.017c0-4.428-3.589-8.017-8.017-8.017h-0.086
	c-4.427,0-7.974,3.588-7.974,8.017C265.043,123.61,268.675,127.198,273.102,127.198z"/>
        <path d="M204.608,127.198c4.427,0,8.017-3.588,8.017-8.017c0-4.428-3.589-8.017-8.017-8.017h-0.086
	c-4.427,0-7.974,3.588-7.974,8.017C196.548,123.61,200.18,127.198,204.608,127.198z"/>
        <path d="M307.221,127.198c4.427,0,8.017-3.588,8.017-8.017c0-4.428-3.589-8.017-8.017-8.017h-0.086
	c-4.427,0-7.974,3.588-7.974,8.017C299.162,123.61,302.794,127.198,307.221,127.198z"/>
        <path d="M238.898,127.198c4.427,0,8.017-3.588,8.017-8.017c0-4.428-3.589-8.017-8.017-8.017h-0.086
	c-4.427,0-7.974,3.588-7.974,8.017C230.838,123.61,234.47,127.198,238.898,127.198z"/>
        <path d="M273.102,75.891c4.427,0,8.017-3.588,8.017-8.017s-3.589-8.017-8.017-8.017h-0.086c-4.427,0-7.974,3.588-7.974,8.017
	S268.675,75.891,273.102,75.891z"/>
        <path d="M204.608,75.891c4.427,0,8.017-3.588,8.017-8.017s-3.589-8.017-8.017-8.017h-0.086c-4.427,0-7.974,3.588-7.974,8.017
	S200.18,75.891,204.608,75.891z"/>
        <path d="M307.221,75.891c4.427,0,8.017-3.588,8.017-8.017s-3.589-8.017-8.017-8.017h-0.086c-4.427,0-7.974,3.588-7.974,8.017
	S302.794,75.891,307.221,75.891z"/>
        <path d="M238.898,75.891c4.427,0,8.017-3.588,8.017-8.017s-3.589-8.017-8.017-8.017h-0.086c-4.427,0-7.974,3.588-7.974,8.017
	S234.47,75.891,238.898,75.891z"/>
        <path d="M255.914,359.148c-4.427,0-8.017,3.588-8.017,8.017c0,4.428,3.589,8.017,8.017,8.017H256c4.427,0,7.974-3.588,7.974-8.017
	C263.974,362.737,260.342,359.148,255.914,359.148z"/>
        <path d="M187.505,359.148c-4.427,0-8.017,3.588-8.017,8.017c0,4.428,3.589,8.017,8.017,8.017h0.086c4.427,0,7.974-3.588,7.974-8.017
	C195.565,362.737,191.933,359.148,187.505,359.148z"/>
        <path d="M324.409,359.148c-4.427,0-8.017,3.588-8.017,8.017c0,4.428,3.589,8.017,8.017,8.017h0.086c4.427,0,7.974-3.588,7.974-8.017
	C332.469,362.737,328.837,359.148,324.409,359.148z"/>
        <path d="M221.795,359.148c-4.427,0-8.017,3.588-8.017,8.017c0,4.428,3.589,8.017,8.017,8.017h0.086c4.427,0,7.974-3.588,7.974-8.017
	C229.855,362.737,226.223,359.148,221.795,359.148z"/>
        <path d="M290.119,359.148c-4.427,0-8.017,3.588-8.017,8.017c0,4.428,3.589,8.017,8.017,8.017h0.085c4.427,0,7.974-3.588,7.974-8.017
	C298.179,362.737,294.546,359.148,290.119,359.148z"/>
        <path d="M255.914,410.455c-4.427,0-8.017,3.588-8.017,8.017s3.589,8.017,8.017,8.017H256c4.427,0,7.974-3.588,7.974-8.017
	S260.342,410.455,255.914,410.455z"/>
        <path d="M187.505,410.455c-4.427,0-8.017,3.588-8.017,8.017s3.589,8.017,8.017,8.017h0.086c4.427,0,7.974-3.588,7.974-8.017
	S191.933,410.455,187.505,410.455z"/>
        <path d="M324.409,410.455c-4.427,0-8.017,3.588-8.017,8.017s3.589,8.017,8.017,8.017h0.086c4.427,0,7.974-3.588,7.974-8.017
	S328.837,410.455,324.409,410.455z"/>
        <path d="M221.795,410.455c-4.427,0-8.017,3.588-8.017,8.017s3.589,8.017,8.017,8.017h0.086c4.427,0,7.974-3.588,7.974-8.017
	S226.223,410.455,221.795,410.455z"/>
        <path d="M290.119,410.455c-4.427,0-8.017,3.588-8.017,8.017s3.589,8.017,8.017,8.017h0.085c4.427,0,7.974-3.588,7.974-8.017
	S294.546,410.455,290.119,410.455z"/>
        <path d="M255.914,461.762c-4.427,0-8.017,3.588-8.017,8.017s3.589,8.017,8.017,8.017H256c4.427,0,7.974-3.588,7.974-8.017
	S260.342,461.762,255.914,461.762z"/>
        <path d="M221.795,461.762c-4.427,0-8.017,3.588-8.017,8.017s3.589,8.017,8.017,8.017h0.086c4.427,0,7.974-3.588,7.974-8.017
	S226.223,461.762,221.795,461.762z"/>
        <path d="M290.119,461.762c-4.427,0-8.017,3.588-8.017,8.017s3.589,8.017,8.017,8.017h0.085c4.427,0,7.974-3.588,7.974-8.017
	S294.546,461.762,290.119,461.762z"/>
        <path d="M238.898,384.802c-4.427,0-8.017,3.588-8.017,8.017s3.589,8.017,8.017,8.017h0.086c4.427,0,7.974-3.588,7.974-8.017
	S243.325,384.802,238.898,384.802z"/>
        <path d="M307.392,384.802c-4.427,0-8.017,3.588-8.017,8.017s3.589,8.017,8.017,8.017h0.086c4.427,0,7.974-3.588,7.974-8.017
	S311.82,384.802,307.392,384.802z"/>
        <path d="M204.779,384.802c-4.427,0-8.017,3.588-8.017,8.017s3.589,8.017,8.017,8.017h0.086c4.427,0,7.974-3.588,7.974-8.017
	S209.206,384.802,204.779,384.802z"/>
        <path d="M273.102,384.802c-4.427,0-8.017,3.588-8.017,8.017s3.589,8.017,8.017,8.017h0.086c4.427,0,7.974-3.588,7.974-8.017
	S277.53,384.802,273.102,384.802z"/>
        <path d="M238.898,436.109c-4.427,0-8.017,3.588-8.017,8.017s3.589,8.017,8.017,8.017h0.086c4.427,0,7.974-3.588,7.974-8.017
	S243.325,436.109,238.898,436.109z"/>
        <path d="M307.392,436.109c-4.427,0-8.017,3.588-8.017,8.017s3.589,8.017,8.017,8.017h0.086c4.427,0,7.974-3.588,7.974-8.017
	S311.82,436.109,307.392,436.109z"/>
        <path d="M204.779,436.109c-4.427,0-8.017,3.588-8.017,8.017s3.589,8.017,8.017,8.017h0.086c4.427,0,7.974-3.588,7.974-8.017
	S209.206,436.109,204.779,436.109z"/>
        <path d="M273.102,436.109c-4.427,0-8.017,3.588-8.017,8.017s3.589,8.017,8.017,8.017h0.086c4.427,0,7.974-3.588,7.974-8.017
	S277.53,436.109,273.102,436.109z"/>
    </g>
</svg>